<?xml version="1.0" encoding="utf-8"?>
<!-- Generator: Adobe Illustrator 27.9.0, SVG Export Plug-In . SVG Version: 6.00 Build 0)  -->
<svg version="1.1" id="Layer_1" xmlns="http://www.w3.org/2000/svg" xmlns:xlink="http://www.w3.org/1999/xlink" x="0px" y="0px"
	 viewBox="0 0 64 64" style="enable-background:new 0 0 64 64;" xml:space="preserve">
<style type="text/css">
	.st0{fill:#0E131B;}
	.st1{fill:#1964C0;}
</style>
<path class="st0" d="M51.1,32.9c-1.2-5.4-2.4-10.4-4.8-14.9c-2.4-4.6-5.2-5.7-9.9-3.8c-1.5,0.6-3,1-4.4,1c-1.4,0-2.9-0.4-4.4-1
	c-4.7-2-7.5-0.8-9.9,3.8s-3.6,9.5-4.8,14.9c6.4,1.2,12.8,1.8,19.1,1.8C38.4,34.6,44.7,34.1,51.1,32.9z"/>
<path class="st0" d="M51.7,35.2c0.5,4.8,0.5,4.8-3.8,5.6c-5.3,1-10.6,1.3-15.9,1.3s-10.6-0.4-15.9-1.3c-4.2-0.8-4.2-0.8-3.8-5.6
	c-17.4,1-11.4,11,7.7,14.7c4,0.8,8,0.9,12,0.9s8-0.1,12-0.9C63.1,46.1,69.1,36.2,51.7,35.2z"/>
<path class="st1" d="M51.7,35.2l-0.6-2.3c-6.4,1.2-12.8,1.8-19.1,1.8l0,0c-6.4,0-12.7-0.6-19.1-1.8l-0.6,2.3
	c-0.5,4.8-0.5,4.8,3.8,5.6c5.2,0.9,10.5,1.3,15.8,1.3l0,0H32l0,0c5.3,0,10.6-0.4,15.9-1.3C52.1,40,52.1,40,51.7,35.2z"/>
</svg>
